{"title":"Hercules.2014.NEW.SOURCE.Cam.x264.AAC-Se7eN","uid":10718518,"size":734659919,"categoryP":"video","categoryS":"movies","magnet":"?xt=urn:btih:fa2b85d51b67988791e3cf460afb7b7f06ad9919&amp;dn=Hercules.2014.NEW.SOURCE.Cam.x264.AAC-Se7eN&amp;tr=udp%3A%2F%2Ftracker.openbittorrent.com%3A80&amp;tr=udp%3A%2F%2Fopen.demonii.com%3A1337&amp;tr=udp%3A%2F%2Ftracker.coppersurfer.tk%3A6969&amp;tr=udp%3A%2F%2Fexodus.desync.com%3A6969","seeders":2,"leechers":0,"uploader":null,"files":4,"time":1407444565,"description":"Format profile                 : Base Media / Version 2\nCodec ID                       : mp42\nFile size                      : 701 MiB\nDuration                       : 1h 32mn\nOverall bit rate mode          : Variable\nOverall bit rate               : 1 059 Kbps\n\n\nVideo\nID                             : 1\nFormat                         : AVC\nFormat/Info                    : Advanced Video Codec\nFormat profile                 : &lt;a class=&quot;__cf_email__&quot; href=&quot;/cdn-cgi/l/email-protection&quot; data-cfemail=&quot;abe6cac2c5ebe798859b&quot;&gt;[email&amp;#160;protected]&lt;/a&gt;&lt;script cf-hash='f9e31' type=&quot;text/javascript&quot;&gt;\n/* &lt;![CDATA[ */!function(){try{var t=&quot;currentScript&quot;in document?document.currentScript:function(){for(var t=document.getElementsByTagName(&quot;script&quot;),e=t.length;e--;)if(t[e].getAttribute(&quot;cf-hash&quot;))return t[e]}();if(t&amp;&amp;t.previousSibling){var e,r,n,i,c=t.previousSibling,a=c.getAttribute(&quot;data-cfemail&quot;);if(a){for(e=&quot;&quot;,r=parseInt(a.substr(0,2),16),n=2;a.length-n;n+=2)i=parseInt(a.substr(n,2),16)^r,e+=String.fromCharCode(i);e=document.createTextNode(e),c.parentNode.replaceChild(e,c)}}}catch(u){}}();/* ]]&gt; */&lt;/script&gt;\nFormat settings, CABAC         : Yes\nFormat settings, ReFrames      : 4 frames\nCodec ID                       : avc1\nCodec ID/Info                  : Advanced Video Coding\nDuration                       : 1h 32mn\nBit rate                       : 893 Kbps\nWidth                          : 670 pixels\nHeight                         : 288 pixels\nDisplay aspect ratio           : 2.35:1\nFrame rate mode                : Variable\nFrame rate                     : 29.970 fps\nMinimum frame rate             : 29.960 fps\nMaximum frame rate             : 182.927 fps\nColor space                    : YUV\nChroma subsampling             : 4:2:0\nBit depth                      : 8 bits\nScan type                      : Progressive\nBits/(Pixel*Frame)             : 0.154\nStream size                    : 591 MiB (84%)\nWriting library                : x264 core 112\nEncoding settings              : cabac=1 / ref=2 / deblock=1:0:0 / analyse=0x1:0x111 / me=hex / subme=6 / psy=1 / psy_rd=1.00:0.00 / mixed_ref=0 / me_range=16 / chroma_me=1 / trellis=0 / 8x8dct=0 / cqm=0 / deadzone=21,11 / fast_pskip=1 / chroma_qp_offset=-2 / threads=6 / sliced_threads=0 / nr=0 / decimate=1 / interlaced=0 / constrained_intra=0 / bframes=2 / b_pyramid=2 / b_adapt=1 / b_bias=0 / direct=1 / weightb=0 / open_gop=0 / weightp=2 / keyint=300 / keyint_min=29 / scenecut=40 / intra_refresh=0 / rc_lookahead=40 / rc=abr / mbtree=1 / bitrate=893 / ratetol=1.0 / qcomp=0.60 / qpmin=3 / qpmax=51 / qpstep=4 / ip_ratio=1.40 / aq=1:1.00\n\nAudio\nID                             : 2\nFormat                         : AAC\nFormat/Info                    : Advanced Audio Codec\nFormat profile                 : LC\nCodec ID                       : 40\nDuration                       : 1h 32mn\nBit rate mode                  : Variable\nBit rate                       : 160 Kbps\nMaximum bit rate               : 190 Kbps\nChannel(s)                     : 2 channels\nChannel positions              : Front: L R\nSampling rate                  : 48.0 KHz\nCompression mode               : Lossy\nStream size                    : 106 MiB (15%)\n\n\nScreens&gt;&gt;&gt;\n &lt;a href=&quot;\nhttp://postimg.org/image/4ux3uad2b/&quot; rel=&quot;nofollow&quot; target=&quot;_NEW&quot;&gt;\nhttp://postimg.org/image/4ux3uad2b/&lt;/a&gt; &lt;a href=&quot;\nhttp://postimg.org/image/ee6snr0kj/&quot; rel=&quot;nofollow&quot; target=&quot;_NEW&quot;&gt;\nhttp://postimg.org/image/ee6snr0kj/&lt;/a&gt; http://imgextra.biz/viewer.php?file=54t5b0p8trudbfmdnrot.jpeg","torrent":{"xt":"urn:btih:fa2b85d51b67988791e3cf460afb7b7f06ad9919","amp;dn":"Hercules.2014.NEW.SOURCE.Cam.x264.AAC-Se7eN","amp;tr":["udp%3A%2F%2Ftracker.openbittorrent.com%3A80","udp%3A%2F%2Fopen.demonii.com%3A1337","udp%3A%2F%2Ftracker.coppersurfer.tk%3A6969","udp%3A%2F%2Fexodus.desync.com%3A6969"],"infoHash":"fa2b85d51b67988791e3cf460afb7b7f06ad9919","infoHashBuffer":{"type":"Buffer","data":[250,43,133,213,27,103,152,135,145,227,207,70,10,251,123,127,6,173,153,25]},"announce":[],"urlList":[]}}